# xmcd CD database file
#
# Track frame offsets:
#	150
#	14533
#	25133
#	39543
#	55420
#	68839
#	81715
#	92059
#	102502
#	112370
#	125323
#	140975
#	153415
#	164603
#	175343
#
# Disc length: 2482 seconds
#
# Revision: 0
# Processed by: cddbd v1.5.2PL0 Copyright (c) Steve Scherf et al.
# Submitted via: CDex 1.51
#
DISCID=e009b00f
DTITLE=Various Artist - A Fine Romance - Disk 1
DYEAR=2005
DGENRE=Blues
TTITLE0=Nat King Cole - Unforgettable
TTITLE1=June Christy - A Lovely Way To Spend An Evening
TTITLE2=Mel Torme - Blue Moon
TTITLE3=Judy Garland - Over The Rainbow
TTITLE4=Peggy Lee - Fly Me To The Moon
TTITLE5=Wayne Newton - I Left My Heart In San Francisco
TTITLE6=Dean Martin - Memories Are Made Of This
TTITLE7=Dina Washington - Call Me Irresponsible
TTITLE8=Nancy Wilson - The More I See You
TTITLE9=Betty Hutton - Blue Skies
TTITLE10=Lena Horne - Moon River
TTITLE11=Chet Baker - Time After Time
TTITLE12=Julie London - I'm In The Mood For Love
TTITLE13=Dinah Shore - Skylark
TTITLE14=Sarah Vaughan - Every Time We Say Goodbye
EXTD=YEAR: 2005
EXTT0=
EXTT1=
EXTT2=
EXTT3=
EXTT4=
EXTT5=
EXTT6=
EXTT7=
EXTT8=
EXTT9=
EXTT10=
EXTT11=
EXTT12=
EXTT13=
EXTT14=
PLAYORDER=
